<svg xmlns="http://www.w3.org/2000/svg" height="48" viewBox="0 -960 960 960" width="48"><path d="M317-116q-13.5 0-24.25-10.75T282-151v-39.46q0-40.611 20.5-76.832Q323-303.514 364-328l-34-209h-61q-27.5 0-47.25-19.75T202-604v-130q0-27.5 19.75-47.25T269-801h174v-43h80v43h158l-76 473q41 24.486 61.5 60.708Q687-231.071 687-190.46V-151q0 13.5-10.75 24.25T652-116H317Zm7-456-31-194h-24q-12 0-22 10t-10 22v130q0 12 10 22t22 10h55Zm160.509 371q13.909 0 23.2-9.089 9.291-9.09 9.291-22.7 0-13.611-9.291-22.911t-23.2-9.3q-13.909 0-22.709 9.089-8.8 9.09-8.8 22.7 0 13.611 8.8 22.911t22.709 9.3ZM396-350h177l67-416H327l69 416Zm-79 199h335v-40q0-50.667-36.872-87.333Q578.256-315 524.725-315h-80.85q-53.531 0-90.203 36.604Q317-241.792 317-191.056V-151Zm168-164Z"/></svg>