<svg xmlns="http://www.w3.org/2000/svg" height="48" viewBox="0 -960 960 960" width="48"><path d="M480.389-492Q506-492 524-510.389q18-18.39 18-44Q542-580 523.611-598q-18.39-18-44-18Q454-616 436-597.611q-18 18.39-18 44Q418-528 436.389-510q18.39 18 44 18ZM480-162q112-94 183-200.419Q734-468.839 734-549q0-110.637-71.976-186.319Q590.047-811 479.815-811t-182.023 75.681Q226-659.637 226-549q0 80.441 71.5 186.72Q369-256 480-162Zm0 47Q335-241 263-349t-72-200q0-119 81.5-207.5T480-845q126 0 207.5 88.5T769-549q0 92-72 200T480-115Zm0-439Z"/></svg>