<svg xmlns="http://www.w3.org/2000/svg" height="48" viewBox="0 -960 960 960" width="48"><path d="M180.515-231h-18.424L149.5-312H116v-134.487q0-24.424 15-44.469Q146-511 171-514h28v-96q0-27.75 19.238-47.375Q237.475-677 266-677h429q26.75 0 46.875 19.625T762-610v96h28q22.75 3 38.375 22.625T844-447.592V-312h-32l-14.507 81h-18.411L766-312H195l-14.485 81ZM498-514h229v-96q0-14-9.5-23t-22.5-9H498v128Zm-264 0h229v-128H266q-14 0-23 9t-9 23v96Zm-83 167h658v-100q0-13-9-22.5t-23-9.5H183q-14 0-23 9.5t-9 22.5v100Zm658 0H151h658Z"/></svg>