<svg xmlns="http://www.w3.org/2000/svg" height="48" viewBox="0 -960 960 960" width="48"><path d="M430-136q-38.25 0-58.125-22.282Q352-180.565 352-210.201q0-18.378 7.968-37.981T387-280q19.796-14.448 34.898-39.724Q437-345 446-381.679q-8-1.988-15.5-5.654Q423-391 416-398l-98 35q-15 5-27.576 8-12.577 3-25.939 3-51.662 0-90.074-45.106Q136-442.213 136-530q0-38.74 21.985-58.87Q179.97-609 209-609q20.696 0 39.826 8.234Q267.957-592.532 280-574q14 21 40 37t62 22q2-6.667 5.5-14.833Q391-538 398-544l-34.846-97.532Q358-655 355-668.286q-3-13.285-3-26.171Q352-758 406.028-791.5 460.056-825 530-825q37.365 0 57.683 22.648Q608-779.705 609-751.472 609-733 600.5-713T574-682q-24 16-38 43t-21 60q8 4 15.588 8.2 7.588 4.2 13.412 9.8l98-37q14-5 26.895-8 12.896-3 25.942-3 65.685 0 97.924 55.171Q825-498.657 825-430q0 38.875-24.039 58.438Q776.922-352 747.625-352 728-352 710-360t-29-27q-14.69-20.245-40.345-35.622Q615-438 579-447q-3 8-7.1 16.059-4.1 8.059-10.9 14.941l36 98q5.143 13.494 8.571 25.722Q609-280.049 609-268.395 607-218 562.159-177 517.318-136 430-136Zm50.235-275q28.348 0 49.057-20.194Q550-451.387 550-480.235q0-28.348-20.944-49.057Q508.113-550 479.765-550q-28.348 0-48.557 20.944Q411-508.113 411-479.765q0 28.348 20.194 48.557Q451.387-411 480.235-411ZM426-569q14-8 27.026-11.625Q466.053-584.25 480-585q9-40 27-74t47-52q9-6 14.5-16.143T574-750q0-15.474-10.5-27.737Q553-790 530-790q-40.235 0-91.059 20.48-50.823 20.481-51.941 74.472 0 10.124 2.5 20.086 2.5 9.962 4.638 15.56L426-569ZM264-387q10 0 37-7l91-32q-7-11-12-24.5t-4-29.5q-41-9-75-27t-51-47q-7-9-18-14.5t-21-5.5q-19.368 0-29.684 10.5Q171-553 171-530q0 56.779 23.625 99.89Q218.25-387 264-387Zm166 216q52.746 0 96.873-23.5T574-265.618q0-10.2-3.5-19.791-3.5-9.591-4.224-15.628L534-392q-13 9-28 13t-25 3q-10 41-28 75t-46 51q-8.75 6.059-14.375 17.529Q387-221 387-211q-.818 17.4 10.591 28.7Q409-171 430-171Zm318.333-216q17.232 0 29.45-9Q790-405 790-430q0-40.591-19.53-91.24-19.529-50.65-75.801-52.76-11.669 0-20.017 1.833Q666.304-570.333 660-567l-91 33q6.8 11.211 11.4 25.105Q585-495 585-481q40 9.698 74 27.849T711-407q5 10 15.778 15 10.777 5 21.555 5ZM585-481ZM480-585ZM376-480Zm105 104Z"/></svg>