<svg xmlns="http://www.w3.org/2000/svg" height="48" viewBox="0 -960 960 960" width="48"><path d="M281.044-545Q256-545 239-561.969 222-578.938 222-604q0-24 16.956-41.5t42-17.5Q306-663 323-645.5q17 17.5 17 42T323.044-562q-16.955 17-42 17Zm-54.697 432Q209-113 196-124.5T183-154q-27.5 0-47.25-19.75T116-221v-176h106v-29.294q0-31.528 21.444-53.117Q264.889-501 296.379-501 313-501 330-493.5q17 7.5 29 21.5l41 48q7 7 14.5 14t16.5 13h271v-335q0-23.882-17-40.941T644.6-790q-10.482 0-20.51 4.5Q614.062-781 607-774l-51 52q5 18 2 34.5T545.213-656L463-734.925q15.522-10.004 32.594-13.039Q512.667-751 529.727-745L581-795q13.158-12.941 29.696-21.471Q627.234-825 645.321-825q38.286 0 65.482 27.237Q738-770.526 738-732v335h106v176q0 27.5-19.75 47.25T777-154q0 18-13.275 29.5T733.771-113H226.347ZM183-189h594q14 0 23-9t9-23v-141H151v141q0 14 9 23t23 9Zm626 0H151h658Z"/></svg>