<svg xmlns="http://www.w3.org/2000/svg" height="48" viewBox="0 -960 960 960" width="48"><path d="M480-111q-68-55-151-87.5T156-239v-365q96 7 178.5 47.5T480-461q63-55 145.5-95.5T804-604v365q-90 8-173 40.5T480-111Zm-.06-44q65.41-47.839 137.931-76.77Q690.393-260.701 769-270.411V-564q-79 13-153 51.5T480-413q-62-62-135.5-100.5T191-564v294q78.607 9.299 151.069 38.23Q414.531-202.839 479.94-155ZM481-623q-53.962 0-91.481-37.019Q352-697.037 352-751.5q0-54.463 37.519-91.981Q427.038-881 481-881q53.963 0 91.481 37.519Q610-805.963 610-751.5q0 54.463-37.519 91.481Q534.963-623 481-623Zm.283-35Q520-658 547.5-685.783t27.5-66.5Q575-791 547.217-818.5t-66.5-27.5Q442-846 414.5-818.217t-27.5 66.5Q387-713 414.783-685.5t66.5 27.5ZM481-752Zm-1 393Z"/></svg>