<svg xmlns="http://www.w3.org/2000/svg" height="48" viewBox="0 -960 960 960" width="48"><path d="M480-510.846q-54.963 0-90.674-35.711-35.711-35.711-35.711-91.058 0-55.348 35.711-90.674 35.711-35.327 90.674-35.327 54.963 0 90.674 35.327 35.711 35.326 35.711 90.674 0 55.347-35.711 91.058-35.711 35.711-90.674 35.711ZM185-185.384v-72.847q0-29.461 16.247-52.682 16.248-23.222 42.676-36.164 61.308-28.154 119.969-42.115 58.661-13.962 116.038-13.962 57.378 0 115.993 14.077Q654.539-375 715.425-346.726q27.26 12.747 43.417 35.891Q775-287.692 775-258.231v72.847H185Zm43.769-43.77h502.462v-29.077q0-15.23-9.094-28.52-9.095-13.289-25.291-21.249-55-26.385-108.605-38.885-53.605-12.5-108.241-12.5t-108.356 12.5q-53.721 12.5-107.721 38.885-16.846 8.308-26 21.234-9.154 12.925-9.154 28.535v29.077ZM480-554.615q34.923 0 58.769-23.847 23.846-23.846 23.846-58.769T538.769-696Q514.923-719.846 480-719.846T421.231-696q-23.846 23.846-23.846 58.769t23.846 58.769q23.846 23.847 58.769 23.847Zm0-82.616Zm0 408.077Z"/></svg>