<svg xmlns="http://www.w3.org/2000/svg" height="48" viewBox="0 -960 960 960" width="48"><path d="M298-97v-245h-86q-30.833 0-53.417-20.958Q136-383.917 136-415q0-26 12.5-46.5T183-491l281-120v-59q-35-6-58.5-32.965Q382-729.929 382-767q0-41.083 28.441-69.542Q438.882-865 479.941-865T550-836.542q29 28.459 29 69.542h-36q0-27-17.86-45-17.859-18-44.5-18Q455-830 436-811.275T417-767q0 25.55 19.225 44.775Q455.45-703 481-703q7.925 0 12.963 5.037Q499-692.925 499-685v73.667L777-491q22 9 34.5 29.346 12.5 20.345 12.5 46.641 0 30.846-21.958 51.93Q780.083-342 749-342h-86v245H298Zm35-282h295-295Zm-120 2h85v-37h365v37h85q16.812 0 28.906-11.5Q789-400 789-416q0-13.833-6.5-24.417Q776-451 764-458L481-580 198-458q-12 5-19.5 16.375T171-416q0 16 12.375 27.5T213-377Zm120 245h295v-247H333v247Z"/></svg>